<svg id="圖層_1" data-name="圖層 1" xmlns="http://www.w3.org/2000/svg" viewBox="0 0 32 32"><defs><style>.cls-1{fill:#fff;}</style></defs><rect class="cls-1" width="32" height="32"/><path d="M15.44,23H14.1a3.85,3.85,0,0,1-1,2.63,3.44,3.44,0,0,1-2.52.94c-2.08,0-3.12-.89-3.12-2.68a2.35,2.35,0,0,1,.67-1.76,2.77,2.77,0,0,1,2-.72h2.1V13.09h-2V11.57h3.81v9.88h1.33Zm-3.2,0h-2.1a1.12,1.12,0,0,0-.78.27.77.77,0,0,0-.31.62,1,1,0,0,0,.34.72,1.83,1.83,0,0,0,1.22.37C11.56,25,12.1,24.36,12.24,23Zm1.88-13.3H12V7.84h2.09Z"/><path d="M24.27,21.85a9.18,9.18,0,0,1-1.91.68,9.63,9.63,0,0,1-2,.2,7.07,7.07,0,0,1-1.49-.16A4.57,4.57,0,0,1,17.45,22a3.11,3.11,0,0,1-1-1,2.83,2.83,0,0,1-.4-1.53,2.67,2.67,0,0,1,.53-1.63,3.19,3.19,0,0,1,1.64-1.09v-.06a2.43,2.43,0,0,1-1.32-.88,2.49,2.49,0,0,1-.49-1.55,2.34,2.34,0,0,1,.41-1.42,3.13,3.13,0,0,1,1-.92,4.69,4.69,0,0,1,1.35-.48,7.5,7.5,0,0,1,1.44-.15,7.7,7.7,0,0,1,1.65.16,14.09,14.09,0,0,1,1.59.43v2h-.12a4.22,4.22,0,0,0-1.48-.76,6.27,6.27,0,0,0-1.77-.26,5.54,5.54,0,0,0-.75,0,2.64,2.64,0,0,0-.73.25,1.39,1.39,0,0,0-.53.47,1.26,1.26,0,0,0-.22.76,1.49,1.49,0,0,0,.25.93,1.41,1.41,0,0,0,.68.48,2.94,2.94,0,0,0,.88.15h1.8V17.6H20.58c-.37,0-.7,0-1,0a2.73,2.73,0,0,0-.85.22,1.28,1.28,0,0,0-.6.53,1.73,1.73,0,0,0-.22.93,1.54,1.54,0,0,0,.24.9,1.81,1.81,0,0,0,.59.55,2.89,2.89,0,0,0,.8.28,4.34,4.34,0,0,0,1,.1,6.16,6.16,0,0,0,2-.35,4.57,4.57,0,0,0,1.69-1h.12Z"/></svg>